# xmcd
#
# Track frame offsets:
#	150
#	17842
#	35994
#	50503
#	72212
#	86195
#	97751
#	116047
#	136388
#	159877
#	174040
#	187471
#	202720
#
# Disc length: 2928 seconds
#
# Revision: 1
# Processed by: cddbd v1.5.1PL0 Copyright (c) Steve Scherf et al.
# Submitted via: dBpowerAMP V4.0
#
DISCID=ad0b6e0d
DTITLE=Kas Bendjen - T Mot Broezen
DYEAR=1900
DGENRE=
TTITLE0=Openheerd
TTITLE1=Tap Los
TTITLE2=Chevolet
TTITLE3=Marietjen
TTITLE4=Schat W-ij Mot S.....
TTITLE5=Toeten Noch Bloazen
TTITLE6=Ie Zegt
TTITLE7=Bierfiets
TTITLE8=Feest Met Mekaar
TTITLE9=D'r Bunt Van Die Luu
TTITLE10=Brandweer
TTITLE11=Sneeuwwalsrock
TTITLE12=Varken Van Boer Bart
EXTD=
EXTT0=
EXTT1=
EXTT2=
EXTT3=
EXTT4=
EXTT5=
EXTT6=
EXTT7=
EXTT8=
EXTT9=
EXTT10=
EXTT11=
EXTT12=
PLAYORDER=
